<svg xmlns="http://www.w3.org/2000/svg" height="24" viewBox="0 -960 960 960" width="24"><path d="M220-120q-24.75 0-42.38-17.63T160-180v-600q0-24.75 17.63-42.38T220-840h520q24.75 0 42.38 17.63T800-780v600q0 24.75-17.63 42.38T740-120H220Zm0-60h520v-600H220v600Zm260-270q-8 0-13.5-5.5T461-469q0-8 5.5-13.5t13.5-5.5h220q8 0 13.5 5.5t5.5 13.5q0 8-5.5 13.5T700-450H480Zm0 120q-8 0-13.5-5.5T461-349q0-8 5.5-13.5t13.5-5.5h220q8 0 13.5 5.5t5.5 13.5q0 8-5.5 13.5T700-330H480Zm0-240q-8 0-13.5-5.5T461-589q0-8 5.5-13.5t13.5-5.5h220q8 0 13.5 5.5t5.5 13.5q0 8-5.5 13.5T700-570H480Zm-212 0h94q8 0 13.5 5.5t5.5 13.5v94q0 8-5.5 13.5T362-450h-94q-8 0-13.5-5.5T249-469v-94q0-8 5.5-13.5t13.5-5.5Z" fill="#666"/></svg>