<svg xmlns="http://www.w3.org/2000/svg" height="24" viewBox="0 -960 960 960" width="24"><path d="M480.26-96q-79 0-149-30.5T205.5-218q-55.5-61.5-86-140.75Q89-437 89-516q0-79 30.5-149t87-126.5Q268-849 338-879.5q70-30.5 149-30.5 79 0 149 30.5t126.5 87q56.5 56.5 87 126.5t30.5 149q0 79-30.5 149T763-238q-56.5 55.5-126.5 86Q566-122 480.26-96Zm-.71-58q37 0 69-9t68-27l-159-161v-122h-57q-13.07 0-22.04 8.96-8.96 8.97-8.96 22.04v117q0 9.7 4.96 18.5 4.96 8.8 14.04 11.5l160 52Zm127-52q29-16 54-38t37-42q4-5 4.5-10.5.5-5.5-1.5-10.5l-62-157q-3-7-8.5-11t-12.5-4h-147v93h88q19 0 32.5 13.5T610-358q0 19-13.5 32.5T564-312h-15l58 106Z" fill="#666"/></svg>