<svg xmlns="http://www.w3.org/2000/svg" height="24" viewBox="0 -960 960 960" width="24"><path d="M80-160v-440h800v440H80Zm60-60h680v-320H140v320Zm0-440v-140h680v140H140Zm340 70q13 0 21.5-8.5T510-620q0-13-8.5-21.5T480-650q-13 0-21.5 8.5T450-620q0 13 8.5 21.5T480-590Zm0 235q13 0 21.5-8.5T510-385q0-13-8.5-21.5T480-415q-13 0-21.5 8.5T450-385q0 13 8.5 21.5T480-355Zm-170 0q13 0 21.5-8.5T340-385q0-13-8.5-21.5T310-415q-13 0-21.5 8.5T280-385q0 13 8.5 21.5T310-355Zm340 0q13 0 21.5-8.5T680-385q0-13-8.5-21.5T650-415q-13 0-21.5 8.5T620-385q0 13 8.5 21.5T650-355ZM140-800v-60h680v60H140Z" fill="#666"/></svg>